<?xml version="1.0" standalone="no"?>
<!DOCTYPE svg PUBLIC "-//W3C//DTD SVG 20010904//EN"
 "http://www.w3.org/TR/2001/REC-SVG-20010904/DTD/svg10.dtd">
<svg version="1.0" xmlns="http://www.w3.org/2000/svg"
 width="400.000000pt" height="175.000000pt" viewBox="0 0 400.000000 175.000000"
 preserveAspectRatio="xMidYMid meet">

<g transform="translate(0.000000,175.000000) scale(0.100000,-0.100000)"
fill="#000000" stroke="none">
<path d="M1845 1596 c-158 -73 -196 -274 -74 -395 63 -64 157 -87 250 -61 45
13 114 72 138 119 105 205 -108 434 -314 337z m184 -56 c71 -36 107 -105 99
-192 -9 -90 -88 -160 -181 -161 -109 -1 -192 81 -191 188 2 76 49 148 114 174
42 17 118 13 159 -9z"/>
<path d="M1920 1395 c-16 -19 -3 -55 20 -55 29 0 44 35 24 54 -19 20 -28 20
-44 1z"/>
<path d="M2106 1165 c-79 -70 -185 -82 -287 -30 -58 29 -75 31 -83 10 -6 -18
24 -49 66 -66 21 -9 27 -16 22 -28 -5 -9 -10 -91 -12 -183 l-4 -168 30 -30
c41 -40 92 -41 131 -2 27 27 28 30 35 188 4 88 4 167 1 175 -4 10 9 19 43 31
60 22 145 98 136 121 -9 26 -35 20 -78 -18z m-158 -278 c3 -165 -3 -190 -46
-185 l-27 3 -3 154 c-3 166 2 184 47 179 l26 -3 3 -148z"/>
<path d="M1884 759 c-3 -6 0 -17 8 -25 13 -13 16 -13 27 0 7 8 10 20 6 26 -8
13 -32 13 -41 -1z"/>
<path d="M777 613 c-4 -3 -7 -75 -7 -160 0 -146 1 -153 20 -153 19 0 20 7 20
160 0 127 -3 160 -13 160 -8 0 -17 -3 -20 -7z"/>
<path d="M2200 595 c0 -18 5 -25 20 -25 15 0 20 7 20 25 0 18 -5 25 -20 25
-15 0 -20 -7 -20 -25z"/>
<path d="M2550 595 c0 -18 5 -25 20 -25 15 0 20 7 20 25 0 18 -5 25 -20 25
-15 0 -20 -7 -20 -25z"/>
<path d="M870 420 c0 -113 1 -120 20 -120 18 0 20 7 20 75 0 67 3 79 25 100
13 14 32 25 42 25 39 0 47 -16 51 -109 4 -81 7 -91 23 -91 17 0 19 8 19 79 0
119 -21 161 -82 161 -13 0 -34 -7 -47 -16 -22 -16 -24 -16 -33 0 -5 9 -16 16
-23 16 -12 0 -15 -22 -15 -120z"/>
<path d="M1120 420 c0 -113 1 -120 20 -120 18 0 20 7 20 79 0 74 2 81 26 100
15 12 34 21 43 21 33 0 41 -22 41 -112 0 -81 2 -88 20 -88 19 0 20 7 20 98 0
90 -2 100 -23 120 -29 27 -62 28 -104 2 -33 -20 -33 -20 -33 0 0 11 -7 20 -15
20 -12 0 -15 -20 -15 -120z"/>
<path d="M1402 521 c-37 -24 -52 -55 -52 -113 0 -34 6 -46 36 -74 48 -46 99
-47 148 -4 105 93 -13 265 -132 191z m106 -41 c29 -27 30 -92 2 -120 -20 -20
-65 -26 -86 -12 -37 24 -43 87 -13 126 25 32 66 34 97 6z"/>
<path d="M1642 530 c-12 -5 -27 -21 -34 -35 -19 -41 1 -68 66 -88 58 -19 78
-39 58 -59 -16 -16 -67 -14 -98 2 -21 12 -27 12 -34 0 -13 -20 24 -42 79 -48
58 -5 101 24 101 68 0 34 -24 53 -87 69 -46 13 -56 22 -47 44 8 23 51 29 83
12 26 -13 30 -13 41 0 10 13 6 17 -23 30 -41 17 -71 18 -105 5z"/>
<path d="M1864 524 c-41 -20 -59 -56 -58 -112 1 -39 6 -50 37 -79 47 -43 101
-46 146 -7 17 14 29 30 25 35 -8 14 -40 11 -54 -6 -28 -34 -92 -13 -109 36
-25 72 39 132 102 96 59 -35 83 -3 25 33 -39 24 -72 25 -114 4z"/>
<path d="M2050 420 c0 -113 1 -120 20 -120 18 0 20 7 20 78 0 84 9 102 58 116
13 5 22 15 22 27 0 23 -6 23 -44 4 -27 -14 -31 -14 -38 0 -5 8 -16 15 -23 15
-12 0 -15 -22 -15 -120z"/>
<path d="M2200 421 c0 -115 1 -121 20 -121 20 0 21 5 18 117 -3 103 -5 118
-20 121 -16 3 -18 -8 -18 -117z"/>
<path d="M2290 390 l0 -150 -807 -2 c-800 -3 -808 -3 -808 -23 0 -20 8 -20
1333 -23 l1332 -2 0 25 0 25 -505 0 -505 0 0 46 c0 45 0 45 22 30 63 -45 158
12 158 93 0 53 -22 97 -60 116 -36 19 -57 19 -92 1 -23 -12 -27 -12 -32 0 -3
8 -12 14 -21 14 -13 0 -15 -22 -15 -150z m155 85 c31 -30 32 -73 4 -109 -25
-32 -70 -35 -99 -6 -29 29 -28 103 2 124 32 23 65 20 93 -9z"/>
<path d="M2550 420 c0 -113 1 -120 20 -120 19 0 20 7 20 120 0 113 -1 120 -20
120 -19 0 -20 -7 -20 -120z"/>
<path d="M2630 520 c0 -18 7 -20 66 -20 l65 0 -70 -86 c-39 -48 -71 -93 -71
-100 0 -11 21 -14 95 -14 88 0 95 2 95 20 0 17 -8 19 -65 22 l-66 3 66 79 c36
43 65 87 65 97 0 17 -8 19 -90 19 -83 0 -90 -1 -90 -20z"/>
<path d="M2837 533 c-4 -3 -7 -12 -7 -20 0 -10 18 -13 71 -13 l70 0 -70 -84
c-39 -46 -71 -91 -71 -100 0 -14 14 -16 95 -16 88 0 95 2 95 20 0 17 -8 19
-66 22 l-67 3 67 81 c36 45 66 89 66 98 0 14 -13 16 -88 16 -49 0 -92 -3 -95
-7z"/>
<path d="M3083 525 c-23 -10 -31 -19 -27 -29 7 -19 4 -19 49 0 33 13 39 13 60
0 12 -8 25 -24 28 -36 5 -19 2 -21 -26 -19 -87 6 -127 -16 -127 -69 0 -58 85
-95 135 -58 17 12 21 12 31 -2 6 -8 18 -13 26 -9 13 4 15 19 10 79 -2 40 -10
88 -18 106 -20 50 -77 65 -141 37z m112 -127 c14 -12 -6 -40 -40 -57 -37 -18
-75 -1 -75 33 0 18 8 27 28 34 28 10 70 6 87 -10z"/>
</g>
</svg>
