<?xml version="1.0" standalone="no"?>
<!DOCTYPE svg PUBLIC "-//W3C//DTD SVG 20010904//EN"
 "http://www.w3.org/TR/2001/REC-SVG-20010904/DTD/svg10.dtd">
<svg version="1.0" xmlns="http://www.w3.org/2000/svg"
 width="400.000000pt" height="133.000000pt" viewBox="0 0 400.000000 133.000000"
 preserveAspectRatio="xMidYMid meet">

<g transform="translate(0.000000,133.000000) scale(0.100000,-0.100000)"
fill="#000000" stroke="none">
<path d="M506 1185 c-100 -35 -161 -125 -161 -235 1 -77 25 -130 81 -180 51
-44 93 -60 161 -60 167 1 279 155 233 321 -14 51 -76 118 -134 145 -58 27
-121 30 -180 9z m157 -59 c44 -18 94 -77 107 -127 36 -133 -97 -265 -231 -229
-48 13 -107 64 -125 107 -19 44 -17 118 3 160 17 38 70 84 105 95 40 11 108 8
141 -6z"/>
<path d="M566 974 c-19 -19 -17 -33 7 -48 24 -15 56 17 41 41 -15 24 -29 26
-48 7z"/>
<path d="M756 751 c-16 -16 -51 -39 -79 -51 -65 -28 -129 -24 -215 15 -48 22
-66 25 -75 16 -17 -17 2 -41 51 -66 30 -15 38 -24 32 -35 -12 -24 -19 -320 -8
-352 6 -16 23 -35 39 -43 32 -17 85 -20 94 -5 4 7 298 10 851 10 744 0 844 -2
844 -15 0 -8 9 -15 20 -15 11 0 20 7 20 15 0 13 61 15 463 17 l462 3 3 22 3
23 -465 0 c-461 0 -466 0 -466 20 0 19 2 20 30 5 46 -24 78 -19 116 19 28 28
34 42 34 75 0 101 -88 165 -158 115 -20 -14 -22 -14 -22 0 0 9 -9 16 -20 16
-18 0 -20 -8 -22 -122 l-3 -123 -817 -3 -817 -2 -3 168 -3 169 47 17 c59 21
144 96 135 119 -10 26 -40 20 -71 -12z m-168 -147 c9 -15 6 -257 -4 -302 -4
-19 -10 -23 -37 -20 l-32 3 -3 148 c-1 90 2 155 8 167 13 24 55 27 68 4z
m1861 -130 c12 -15 21 -39 21 -54 0 -38 -35 -80 -68 -80 -42 0 -72 36 -72 86
0 33 5 46 22 58 34 24 73 20 97 -10z"/>
<path d="M537 344 c-14 -15 -6 -34 14 -34 14 0 19 5 17 17 -3 18 -20 27 -31
17z"/>
<path d="M2200 601 c0 -25 4 -31 21 -31 16 0 20 5 17 27 -2 17 -10 29 -20 31
-14 3 -18 -3 -18 -27z"/>
<path d="M2550 600 c0 -23 4 -30 20 -30 16 0 20 7 20 30 0 23 -4 30 -20 30
-16 0 -20 -7 -20 -30z"/>
<path d="M770 460 c0 -153 1 -160 20 -160 19 0 20 7 20 160 0 153 -1 160 -20
160 -19 0 -20 -7 -20 -160z"/>
<path d="M870 420 c0 -113 1 -120 20 -120 18 0 20 7 20 79 0 74 2 81 27 101
36 28 75 23 84 -10 4 -14 7 -58 8 -98 1 -64 3 -73 19 -70 26 5 30 149 5 198
-21 41 -63 51 -112 25 -28 -14 -31 -14 -31 0 0 8 -9 15 -20 15 -19 0 -20 -7
-20 -120z"/>
<path d="M1120 419 c0 -109 2 -120 18 -117 14 3 18 17 22 86 5 89 19 112 65
112 37 0 45 -19 45 -112 0 -81 2 -88 20 -88 19 0 20 7 20 100 0 87 -3 103 -20
120 -24 24 -64 26 -104 5 -35 -18 -36 -18 -36 0 0 8 -7 15 -15 15 -13 0 -15
-20 -15 -121z"/>
<path d="M1403 520 c-41 -24 -53 -48 -53 -103 0 -135 182 -159 219 -29 13 44
-3 96 -40 126 -37 31 -82 34 -126 6z m107 -40 c28 -28 27 -87 -2 -117 -29 -31
-71 -30 -97 3 -59 75 33 180 99 114z"/>
<path d="M1625 515 c-48 -47 -27 -85 61 -111 47 -13 55 -19 52 -37 -2 -18 -11
-23 -41 -25 -23 -2 -48 3 -62 12 -20 13 -25 13 -35 1 -10 -12 -5 -18 22 -35
68 -41 158 -12 158 51 0 33 -38 63 -96 73 -38 8 -47 17 -38 40 9 24 49 30 83
13 25 -13 32 -13 41 -2 9 11 5 17 -19 29 -46 24 -97 20 -126 -9z"/>
<path d="M1860 523 c-35 -24 -48 -43 -55 -80 -7 -37 12 -89 42 -116 45 -40
136 -27 163 23 9 17 8 20 -9 20 -11 0 -32 -7 -48 -17 -59 -33 -120 18 -106 90
10 49 84 77 113 42 16 -19 50 -20 50 -1 0 8 -12 24 -26 35 -33 26 -90 27 -124
4z"/>
<path d="M2050 420 c0 -113 1 -120 20 -120 18 0 20 7 20 79 0 74 2 81 26 100
15 12 33 21 40 21 8 0 14 9 14 20 0 24 -11 25 -50 5 -27 -14 -30 -14 -30 0 0
8 -9 15 -20 15 -19 0 -20 -7 -20 -120z"/>
<path d="M2200 419 c0 -109 2 -120 18 -117 15 3 17 18 20 121 3 112 2 117 -18
117 -19 0 -20 -6 -20 -121z"/>
<path d="M2550 420 c0 -113 1 -120 20 -120 19 0 20 7 20 120 0 113 -1 120 -20
120 -19 0 -20 -7 -20 -120z"/>
<path d="M2630 520 c0 -18 7 -20 66 -20 l65 0 -72 -85 c-44 -53 -69 -91 -65
-100 4 -12 25 -15 96 -15 83 0 90 2 90 20 0 17 -8 19 -66 22 l-66 3 66 79 c91
109 89 116 -24 116 -83 0 -90 -1 -90 -20z"/>
<path d="M2830 520 c0 -18 7 -20 65 -20 36 0 65 -3 65 -6 0 -3 -29 -40 -65
-82 -90 -107 -88 -112 30 -112 88 0 95 1 95 20 0 18 -7 20 -65 20 -36 0 -65 3
-65 6 0 3 29 40 65 82 90 107 88 112 -30 112 -88 0 -95 -1 -95 -20z"/>
<path d="M3078 524 c-17 -9 -25 -20 -22 -29 7 -18 6 -19 48 2 32 15 36 15 60
-1 14 -9 26 -25 26 -36 0 -16 -5 -19 -29 -14 -37 8 -98 -12 -111 -36 -18 -33
-11 -68 16 -89 32 -25 64 -27 104 -6 17 9 30 11 30 6 0 -12 32 -23 41 -14 4 4
3 48 -1 98 -8 79 -12 93 -35 112 -31 27 -86 30 -127 7z m106 -117 c15 -11 17
-17 7 -35 -24 -44 -111 -41 -111 4 0 38 67 58 104 31z"/>
</g>
</svg>
