<?xml version="1.0" standalone="no"?>
<!DOCTYPE svg PUBLIC "-//W3C//DTD SVG 20010904//EN"
 "http://www.w3.org/TR/2001/REC-SVG-20010904/DTD/svg10.dtd">
<svg version="1.0" xmlns="http://www.w3.org/2000/svg"
 width="400.000000pt" height="108.000000pt" viewBox="0 0 400.000000 108.000000"
 preserveAspectRatio="xMidYMid meet">

<g transform="translate(0.000000,108.000000) scale(0.100000,-0.100000)"
fill="#000000" stroke="none">
<path d="M164 1026 c-147 -68 -180 -269 -64 -385 78 -77 179 -91 281 -38 57
29 67 39 96 96 39 74 43 136 14 203 -55 128 -200 183 -327 124z m196 -51 c85
-44 118 -170 67 -258 -82 -139 -302 -107 -337 49 -23 100 36 201 131 224 40
10 104 3 139 -15z"/>
<path d="M244 826 c-10 -26 4 -48 28 -44 17 2 23 10 23 28 0 18 -6 26 -23 28
-13 2 -25 -3 -28 -12z"/>
<path d="M544 852 c-6 -4 -14 -35 -17 -69 -9 -109 -72 -187 -179 -224 -39 -13
-54 -23 -56 -38 -5 -29 17 -35 69 -17 54 19 59 19 59 3 0 -7 53 -65 118 -130
l117 -117 850 -2 850 -3 3 -28 c4 -37 36 -33 40 6 l3 27 445 0 c404 0 469 3
436 24 -4 2 -9 37 -10 78 -4 96 -25 140 -72 152 -41 10 -115 -15 -107 -36 2
-7 11 -11 18 -9 8 2 30 6 50 9 30 3 40 -1 53 -19 9 -13 16 -26 16 -29 0 -3
-24 -6 -54 -6 -39 1 -59 -4 -75 -18 -25 -23 -28 -72 -4 -98 15 -17 15 -18 -10
-18 -17 0 -27 5 -27 15 0 12 -14 15 -65 15 -36 0 -65 2 -65 5 0 3 29 41 65 84
36 43 65 84 65 90 0 7 -31 11 -90 11 -73 0 -90 -3 -90 -15 0 -12 14 -15 65
-15 l66 0 -65 -77 c-36 -43 -66 -86 -66 -95 0 -10 -4 -18 -10 -18 -5 0 -10 7
-10 15 0 12 -14 15 -65 15 -36 0 -65 3 -65 6 0 3 29 40 65 82 36 42 65 83 65
90 0 9 -25 12 -90 12 -73 0 -90 -3 -90 -15 0 -12 14 -15 65 -15 l66 0 -64 -78
c-35 -42 -67 -85 -70 -95 -4 -9 -11 -17 -17 -17 -6 0 -10 41 -10 110 0 103 -1
110 -20 110 -19 0 -20 -7 -20 -110 l0 -110 -52 0 c-41 1 -49 3 -35 11 9 5 24
23 32 39 50 97 -34 206 -129 166 -20 -8 -36 -11 -36 -5 0 5 -7 9 -15 9 -12 0
-15 -19 -15 -110 l0 -110 -25 0 -25 0 0 110 c0 103 -1 110 -20 110 -19 0 -20
-7 -20 -110 l0 -110 -55 0 -55 0 0 59 c0 77 11 105 49 121 17 7 31 19 31 26 0
19 -40 18 -62 -3 -17 -15 -18 -15 -18 0 0 10 -8 17 -20 17 -19 0 -20 -7 -20
-110 l0 -110 -41 0 -42 0 27 21 c14 11 26 25 26 30 0 20 -29 20 -49 0 -28 -28
-56 -26 -86 4 -65 64 9 174 81 120 22 -16 54 -20 54 -5 0 16 -42 49 -71 55
-37 8 -100 -21 -116 -55 -7 -14 -13 -42 -13 -63 0 -31 7 -46 34 -73 l34 -34
-67 0 c-57 1 -64 2 -49 14 10 7 21 27 24 44 6 27 2 33 -26 51 -18 10 -48 22
-67 26 -28 5 -34 10 -31 28 2 17 11 23 35 25 18 2 41 -2 52 -7 26 -14 39 5 18
26 -23 24 -100 23 -126 -1 -23 -21 -28 -68 -8 -83 6 -6 36 -18 65 -27 52 -18
63 -31 40 -54 -16 -16 -53 -15 -87 3 -16 8 -31 11 -35 8 -12 -13 -5 -30 17
-41 18 -9 10 -11 -46 -11 l-67 -1 30 27 c62 56 47 159 -28 190 -76 32 -152
-23 -152 -111 0 -30 7 -45 34 -72 l34 -34 -49 0 -49 0 0 75 c0 132 -35 174
-116 140 -25 -10 -40 -12 -42 -5 -2 5 -10 10 -18 10 -11 0 -14 -22 -14 -110
l0 -110 -25 0 c-25 0 -25 1 -25 90 0 84 -2 93 -25 116 -21 21 -31 24 -58 19
-18 -4 -38 -12 -46 -19 -11 -8 -15 -8 -18 2 -3 6 -13 12 -24 12 -18 0 -19 -8
-19 -110 l0 -110 -25 0 -25 0 0 150 c0 143 -1 150 -20 150 -19 0 -20 -7 -20
-150 l0 -150 -62 0 -63 0 4 57 3 56 -119 117 -118 116 18 49 c12 32 17 69 15
108 -3 59 -12 74 -34 59z m78 -369 c55 -54 104 -106 109 -115 12 -22 2 -46
-23 -54 -17 -5 -42 15 -129 102 -60 60 -109 116 -109 126 0 16 24 37 44 38 5
0 54 -44 108 -97z m506 -15 c7 -7 12 -44 12 -95 l0 -83 -55 0 -55 0 0 74 c0
69 2 76 26 95 30 24 54 27 72 9z m242 -7 c5 -11 10 -54 10 -95 l0 -76 -55 0
-55 0 0 75 c0 63 3 77 22 95 28 25 64 26 78 1z m239 -7 c12 -15 21 -40 21 -56
0 -34 -39 -78 -70 -78 -31 0 -70 44 -70 78 0 41 35 82 70 82 19 0 36 -9 49
-26z m896 1 c16 -15 25 -36 25 -55 0 -34 -38 -80 -65 -80 -9 0 -27 7 -40 16
-21 13 -25 24 -25 62 0 78 55 108 105 57z m714 -64 c12 -8 13 -15 3 -35 -19
-42 -92 -47 -107 -8 -13 35 65 68 104 43z m-789 -97 c0 -2 -7 -4 -15 -4 -8 0
-15 4 -15 10 0 5 7 7 15 4 8 -4 15 -8 15 -10z m805 6 c4 -6 -6 -10 -22 -10
-22 0 -25 2 -13 10 19 12 27 12 35 0z"/>
<path d="M670 360 c0 -15 5 -20 18 -18 9 2 17 10 17 18 0 8 -8 16 -17 18 -13
2 -18 -3 -18 -18z"/>
<path d="M2270 576 c0 -20 5 -26 21 -26 15 0 20 5 17 22 -5 34 -38 37 -38 4z"/>
<path d="M2610 575 c0 -18 5 -25 20 -25 15 0 20 7 20 25 0 18 -5 25 -20 25
-15 0 -20 -7 -20 -25z"/>
</g>
</svg>
